<?xml version="1.0" standalone="no"?>
<!DOCTYPE svg PUBLIC "-//W3C//DTD SVG 20010904//EN"
 "http://www.w3.org/TR/2001/REC-SVG-20010904/DTD/svg10.dtd">
<svg version="1.0" xmlns="http://www.w3.org/2000/svg"
 width="1192.000000pt" height="1192.000000pt" viewBox="0 0 1192.000000 1192.000000"
 preserveAspectRatio="xMidYMid meet">
<metadata>
Created by potrace 1.14, written by Peter Selinger 2001-2017
</metadata>
<g transform="translate(0.000000,1192.000000) scale(0.100000,-0.100000)"
fill="#000000" stroke="none">
<path d="M9230 10797 c-58 -17 -120 -47 -120 -58 0 -5 -7 -9 -15 -9 -24 0
-105 -90 -136 -152 -16 -32 -29 -60 -29 -63 0 -3 0 -6 -1 -7 -7 -19 -11 -119
-6 -148 3 -14 8 -38 11 -53 6 -32 68 -149 100 -188 11 -14 28 -36 36 -48 15
-22 172 -236 187 -256 5 -5 35 -47 68 -93 33 -45 78 -106 100 -136 22 -30 49
-66 60 -82 48 -66 111 -150 127 -168 10 -11 18 -25 18 -32 0 -7 3 -14 8 -16 7
-3 116 -147 172 -228 14 -19 30 -42 37 -50 33 -41 83 -111 83 -115 0 -4 19
-29 45 -59 6 -6 39 -51 75 -101 35 -49 68 -94 72 -100 5 -5 58 -77 118 -160
60 -82 118 -160 130 -172 11 -13 18 -23 16 -23 -5 0 134 -191 169 -233 8 -9
15 -21 15 -26 0 -5 4 -11 8 -13 5 -1 28 -31 52 -65 24 -35 48 -63 52 -63 4 0
8 -6 8 -13 0 -7 9 -23 20 -35 11 -12 20 -26 20 -32 0 -5 3 -10 8 -10 4 -1 23
-24 42 -51 28 -40 114 -154 177 -234 5 -5 33 -44 63 -85 30 -41 58 -76 62 -78
5 -2 8 -8 8 -13 0 -9 17 -32 66 -83 70 -77 180 -123 304 -130 71 -4 211 36
248 72 7 6 17 12 22 12 13 0 106 98 121 129 8 14 16 28 19 31 3 3 14 30 25 60
19 53 27 192 13 245 -14 58 -32 105 -40 105 -5 0 -7 4 -4 9 4 5 3 11 -2 13 -4
1 -32 37 -62 78 -30 41 -65 86 -77 100 -13 14 -23 28 -23 31 0 3 -9 17 -21 30
-11 13 -29 34 -40 47 -10 12 -19 26 -19 30 0 5 -8 17 -18 28 -9 10 -33 39 -52
64 -19 25 -38 50 -43 55 -4 6 -33 44 -64 85 -32 41 -60 77 -63 80 -3 3 -35 43
-70 90 -36 47 -67 87 -70 90 -3 3 -25 32 -50 65 -25 33 -49 65 -55 71 -5 6
-21 25 -35 43 -14 18 -54 70 -90 116 -36 45 -90 115 -120 155 -30 40 -60 77
-65 84 -6 6 -40 49 -75 96 -36 46 -71 91 -77 100 -7 8 -74 94 -149 190 -74 96
-144 185 -155 198 -10 12 -19 26 -19 31 0 5 -3 11 -7 13 -8 3 -42 43 -83 98
-14 18 -31 39 -38 47 -7 7 -11 13 -7 13 3 0 -5 11 -19 24 -15 13 -26 28 -26
34 0 6 -4 12 -8 14 -4 2 -37 41 -72 88 -64 83 -78 101 -119 149 -12 13 -21 27
-21 30 0 3 -14 20 -30 38 -17 18 -30 36 -30 42 0 5 -4 11 -8 13 -4 2 -30 32
-57 68 -27 36 -54 70 -60 77 -5 6 -18 22 -28 35 -53 70 -125 155 -145 171 -12
10 -29 25 -37 33 -8 9 -15 12 -15 7 0 -4 -4 -2 -9 5 -14 23 -132 59 -196 60
-33 1 -80 -4 -105 -11z"/>
<path d="M7745 9363 c-27 -9 -52 -19 -55 -23 -3 -4 -18 -14 -35 -23 -74 -39
-155 -143 -181 -236 -43 -146 2 -291 126 -407 90 -84 143 -129 164 -141 11 -7
17 -12 13 -13 -4 0 23 -26 61 -57 38 -32 95 -81 128 -110 32 -28 68 -60 80
-70 33 -28 146 -127 158 -138 6 -5 41 -35 76 -65 36 -30 67 -57 70 -60 5 -5
121 -106 184 -160 16 -14 34 -29 40 -35 6 -5 45 -39 86 -75 41 -36 80 -69 86
-75 38 -35 140 -122 157 -134 11 -8 32 -26 46 -40 14 -15 73 -66 131 -115 58
-49 112 -96 120 -105 9 -9 42 -38 75 -66 33 -27 78 -67 100 -87 22 -21 48 -40
58 -44 9 -3 17 -11 17 -17 0 -7 15 -22 33 -34 17 -13 53 -42 78 -65 26 -24 57
-52 71 -63 67 -57 154 -131 158 -136 13 -14 173 -152 245 -210 83 -66 111 -90
149 -124 102 -92 206 -172 206 -158 0 3 6 1 13 -5 18 -14 84 -32 144 -39 114
-12 255 39 347 125 25 23 46 45 46 47 0 3 11 22 25 43 23 34 50 100 61 147 13
52 5 164 -16 225 -35 105 -93 175 -230 280 -18 14 -42 33 -54 43 -11 10 -42
36 -67 58 -25 21 -57 49 -71 61 -13 13 -45 39 -69 59 -45 38 -172 141 -199
162 -33 26 -126 102 -136 112 -6 5 -30 26 -54 45 -24 19 -54 44 -67 55 -13 11
-35 30 -51 42 -42 33 -216 176 -228 188 -7 5 -26 21 -44 35 -18 14 -37 30 -44
35 -18 17 -215 177 -254 208 -20 15 -39 31 -42 35 -3 4 -23 20 -45 37 -21 16
-47 36 -56 45 -9 8 -25 22 -35 30 -10 9 -49 40 -86 70 -38 29 -68 57 -68 62 0
4 -5 8 -11 8 -6 0 -21 9 -33 20 -18 16 -72 61 -321 265 -53 43 -113 93 -159
130 -21 17 -48 39 -60 50 -13 11 -43 36 -67 55 -24 19 -73 60 -110 90 -37 30
-86 71 -109 89 -23 19 -48 40 -54 45 -37 36 -129 95 -176 115 -69 29 -192 36
-265 14z"/>
<path d="M6639 7565 c-3 -2 -16 -6 -29 -8 -39 -7 -81 -28 -125 -61 -44 -34
-104 -96 -105 -109 0 -5 -7 -15 -15 -24 -8 -8 -13 -19 -10 -24 4 -5 2 -9 -3
-9 -6 0 -13 -12 -18 -27 -25 -88 -29 -190 -10 -247 21 -63 44 -107 66 -128 10
-10 24 -26 32 -36 17 -24 90 -73 169 -113 35 -19 66 -34 69 -34 3 -1 103 -49
224 -108 120 -59 223 -107 227 -107 5 0 9 -5 9 -12 0 -6 3 -9 6 -6 3 3 77 -30
165 -73 88 -43 164 -79 169 -79 6 0 10 -5 10 -12 0 -6 3 -9 6 -5 3 3 60 -22
127 -55 67 -33 190 -93 272 -133 83 -40 204 -99 270 -131 66 -32 123 -57 128
-56 4 1 7 -2 7 -8 0 -5 4 -10 10 -10 5 0 69 -29 141 -65 72 -36 137 -65 145
-65 8 0 14 -5 14 -11 0 -5 5 -7 10 -4 6 3 10 2 10 -4 0 -5 10 -13 21 -16 19
-6 222 -104 624 -301 77 -37 142 -69 145 -69 20 -6 190 -84 319 -148 35 -17
73 -33 84 -34 12 -2 24 -7 27 -12 3 -5 55 -8 115 -6 126 4 135 5 135 17 0 4 9
8 19 8 11 0 23 5 26 10 4 6 11 8 16 5 5 -4 12 1 15 9 3 9 13 16 21 16 30 0
171 164 179 210 0 3 4 12 7 20 4 8 8 24 10 35 1 11 5 25 8 30 12 21 2 172 -15
220 -54 156 -136 229 -371 330 -22 10 -94 44 -160 75 -66 32 -142 68 -170 80
-27 12 -68 30 -90 40 -104 47 -170 77 -295 132 -74 34 -139 65 -144 69 -6 5
-18 9 -28 9 -10 0 -18 4 -18 8 0 5 -6 9 -12 9 -7 0 -49 17 -93 37 -44 21 -98
46 -120 55 -22 10 -65 30 -95 44 -30 14 -122 56 -205 92 -82 37 -175 79 -205
93 -30 15 -57 27 -60 28 -6 0 -22 8 -219 98 -80 36 -151 66 -158 66 -7 0 -13
5 -13 11 0 5 -4 7 -10 4 -5 -3 -10 -1 -10 4 0 6 -3 10 -7 9 -5 -1 -24 5 -43
14 -19 9 -82 37 -140 63 -58 26 -127 58 -155 72 -27 13 -52 25 -55 24 -3 0
-43 18 -88 40 -46 21 -86 39 -88 39 -3 0 -39 16 -80 35 -41 19 -79 35 -84 35
-6 0 -10 5 -10 12 0 6 -3 8 -6 5 -4 -3 -16 -1 -28 5 -11 7 -23 13 -26 13 -3 0
-31 13 -63 28 -141 68 -210 90 -293 93 -45 2 -83 2 -85 -1z"/>
<path d="M5977 5624 c-3 -3 -11 -7 -19 -8 -133 -27 -252 -156 -283 -308 -33
-158 25 -314 147 -399 48 -32 158 -82 166 -74 2 2 16 -1 31 -7 14 -5 37 -12
51 -14 25 -4 32 -5 80 -17 55 -13 316 -70 330 -72 8 -1 24 -4 35 -8 11 -3 32
-8 48 -11 15 -3 35 -7 45 -10 9 -3 29 -8 45 -11 15 -3 39 -7 55 -10 15 -3 35
-8 44 -11 10 -3 29 -7 43 -10 43 -7 66 -12 230 -49 88 -20 167 -38 175 -40 8
-2 45 -10 81 -19 37 -8 78 -17 90 -20 13 -2 35 -7 49 -10 14 -3 36 -8 50 -11
14 -2 42 -9 63 -14 20 -5 37 -7 37 -4 0 3 6 0 14 -6 8 -6 18 -11 22 -10 5 1
11 0 14 -1 3 -1 14 -3 25 -5 43 -6 91 -16 120 -25 17 -5 44 -11 60 -14 17 -3
48 -10 70 -15 22 -5 65 -14 95 -21 30 -7 71 -16 90 -20 19 -5 46 -11 60 -14
14 -3 45 -10 70 -16 25 -5 56 -12 70 -14 14 -3 34 -7 45 -10 144 -32 212 -48
275 -61 41 -9 84 -19 95 -21 11 -3 31 -7 45 -10 14 -2 70 -15 125 -28 99 -24
151 -35 190 -41 11 -1 27 -5 35 -8 8 -4 31 -8 50 -11 19 -2 35 -5 35 -6 0 -1
16 -3 35 -5 19 -2 36 -4 38 -5 1 -1 7 -4 12 -5 6 -1 11 -3 13 -5 1 -1 11 -3
22 -4 11 -2 36 -7 55 -11 39 -9 42 -10 125 -25 125 -24 251 6 348 82 61 48 93
86 123 148 15 30 31 63 36 73 5 10 6 22 3 27 -3 5 -1 11 4 14 5 3 8 19 7 36
-1 16 1 30 6 30 4 0 3 12 -2 26 -7 18 -7 23 2 18 6 -4 8 -3 5 3 -4 6 -9 30
-12 52 -17 131 -105 255 -232 327 -35 19 -123 45 -197 58 -16 3 -53 10 -83 16
-29 6 -65 13 -80 15 -16 2 -28 5 -28 6 0 1 -9 3 -20 4 -11 1 -38 7 -60 13 -39
11 -90 22 -130 27 -11 2 -20 4 -20 5 0 1 -9 3 -20 4 -21 3 -74 13 -115 22 -14
3 -34 6 -45 8 -34 5 -248 46 -295 57 -65 14 -90 18 -134 24 -21 3 -41 7 -45 9
-3 2 -25 7 -47 10 -38 6 -54 9 -106 21 -30 7 -62 12 -118 20 -24 4 -47 8 -51
10 -3 2 -21 7 -40 10 -19 3 -47 8 -64 11 -16 3 -50 10 -75 15 -25 6 -58 13
-75 15 -16 2 -41 6 -55 10 -14 3 -38 7 -55 10 -16 3 -73 14 -125 24 -52 11
-106 22 -120 24 -39 7 -132 25 -165 31 -16 4 -39 8 -50 9 -11 2 -20 4 -20 6 0
1 -18 4 -40 6 -22 2 -47 7 -55 10 -8 4 -26 8 -40 9 -14 1 -38 5 -55 9 -16 3
-41 9 -55 11 -62 12 -177 35 -200 40 -13 2 -42 7 -64 11 -22 3 -43 7 -46 9 -3
2 -23 6 -45 9 -22 4 -47 8 -55 11 -8 2 -31 6 -50 9 -19 2 -42 7 -50 10 -8 3
-31 7 -50 10 -19 3 -46 8 -60 11 -14 3 -41 8 -60 11 -19 3 -44 8 -55 11 -11 4
-29 8 -40 9 -39 4 -100 16 -109 21 -12 8 -212 14 -219 7z"/>
<path d="M316 4683 c-4 -4 -14 -8 -22 -9 -33 -5 -122 -55 -161 -91 -90 -83
-134 -189 -129 -313 3 -80 31 -171 66 -214 74 -94 174 -157 270 -171 57 -9
2326 -9 2339 -1 6 4 7 16 2 28 -4 12 -5 37 -1 55 5 18 4 35 -1 38 -4 3 -4 15
0 28 8 21 8 21 327 22 175 1 329 -2 340 -6 19 -7 40 -50 36 -71 -1 -5 3 -8 10
-8 6 0 9 -3 6 -6 -7 -6 -1 -29 42 -144 18 -47 33 -89 34 -95 2 -5 5 -17 8 -25
3 -8 20 -53 37 -101 17 -47 31 -92 31 -100 0 -8 4 -19 8 -25 4 -5 13 -25 19
-44 22 -68 94 -275 103 -295 25 -60 74 -214 75 -241 1 -17 5 -35 8 -42 4 -6 3
-14 -3 -17 -8 -5 -7 -11 1 -21 9 -11 9 -14 0 -14 -7 0 -9 -5 -5 -12 5 -7 9
-44 10 -83 3 -99 17 -262 29 -340 3 -16 7 -43 9 -60 5 -31 12 -71 21 -115 2
-14 7 -36 9 -50 10 -57 57 -257 66 -280 5 -14 11 -34 13 -45 2 -11 6 -27 9
-35 13 -37 33 -105 31 -110 -1 -3 3 -10 8 -17 6 -6 12 -24 15 -39 3 -15 8 -32
12 -38 3 -6 7 -16 8 -22 1 -6 9 -27 17 -45 8 -19 22 -54 32 -79 19 -52 32 -80
90 -205 23 -49 45 -98 48 -107 6 -17 183 -18 3521 -18 l3515 0 16 30 c8 16 15
33 14 36 0 4 3 10 8 13 10 7 35 59 39 80 1 8 6 17 11 20 4 3 9 13 11 21 2 8
20 53 39 100 74 178 84 202 89 222 2 10 6 26 8 35 2 10 10 32 16 48 6 17 13
37 15 45 3 8 16 56 30 105 27 98 71 289 79 345 3 19 7 46 10 60 12 64 26 167
31 235 2 22 4 40 5 40 6 0 19 345 13 361 -3 8 -279 11 -978 10 -536 -1 -975 0
-975 2 0 2 24 25 53 52 29 27 62 64 72 84 11 20 23 36 27 36 5 0 8 8 8 18 0
10 5 23 12 30 7 7 9 12 5 12 -4 0 -3 8 2 18 22 41 28 164 12 234 -38 161 -165
294 -320 334 -65 16 -391 26 -391 12 0 -4 -10 -4 -22 0 -17 6 -503 8 -503 2 0
0 -313 -3 -695 -6 -882 -7 -1732 -14 -1745 -15 -5 0 -27 1 -47 3 -21 3 -38 2
-38 -1 0 -3 -64 -6 -143 -7 -78 0 -155 -3 -172 -6 -53 -11 -145 -49 -145 -60
0 -5 -5 -8 -11 -8 -16 0 -109 -97 -101 -105 4 -3 2 -9 -4 -13 -17 -12 -42 -74
-52 -130 -19 -105 1 -221 53 -301 23 -37 105 -121 105 -108 0 3 16 -5 36 -18
20 -14 63 -30 95 -37 33 -7 59 -14 59 -18 0 -3 -337 -5 -750 -5 -738 0 -750 0
-764 20 -7 11 -14 22 -14 25 -1 11 -14 46 -23 62 -5 10 -9 27 -9 37 0 11 -4
22 -9 25 -5 3 -12 18 -16 33 -3 15 -15 46 -26 70 -10 23 -19 46 -19 51 0 5 -7
26 -15 46 -8 20 -15 38 -15 41 0 3 -7 19 -15 35 -9 17 -13 30 -9 30 4 0 2 6
-3 13 -12 14 -38 89 -35 100 1 4 -3 7 -8 7 -6 0 -10 5 -10 12 0 10 -87 251
-109 303 -20 46 -51 128 -51 135 0 4 -8 25 -17 46 -9 22 -17 41 -18 44 -4 18
-29 87 -35 95 -4 6 -15 35 -25 65 -10 30 -20 60 -24 65 -3 6 -6 12 -7 15 -1 3
-5 20 -9 38 -4 17 -11 32 -14 32 -4 0 -13 23 -20 50 -7 28 -16 50 -20 50 -4 0
-7 10 -8 21 -1 12 -7 27 -13 33 -7 7 -178 10 -528 11 -284 0 -522 4 -529 8 -9
5 -9 15 -3 32 5 13 6 27 1 29 -9 6 -8 36 2 53 4 6 3 14 -2 18 -6 3 -8 12 -4
21 5 13 -134 14 -1175 14 -648 -1 -1182 -4 -1186 -7z m5577 -1780 c-7 -2 -19
-2 -25 0 -7 3 -2 5 12 5 14 0 19 -2 13 -5z m64 1 c-3 -3 -12 -4 -19 -1 -8 3
-5 6 6 6 11 1 17 -2 13 -5z"/>
</g>
</svg>
