<?xml version="1.0" encoding="UTF-8" standalone="no"?>
<!-- Created with Inkscape (http://www.inkscape.org/) -->

<svg
   xmlns:dc="http://purl.org/dc/elements/1.1/"
   xmlns:cc="http://creativecommons.org/ns#"
   xmlns:rdf="http://www.w3.org/1999/02/22-rdf-syntax-ns#"
   xmlns:svg="http://www.w3.org/2000/svg"
   xmlns="http://www.w3.org/2000/svg"
   xmlns:sodipodi="http://sodipodi.sourceforge.net/DTD/sodipodi-0.dtd"
   xmlns:inkscape="http://www.inkscape.org/namespaces/inkscape"
   width="131.26262mm"
   height="118.17908mm"
   viewBox="0 0 131.26262 118.17908"
   version="1.1"
   id="svg8"
   inkscape:version="0.92.4 (5da689c313, 2019-01-14)"
   sodipodi:docname="hirschheissich.svg">
  <defs
     id="defs2" />
  <sodipodi:namedview
     id="base"
     pagecolor="#ffffff"
     bordercolor="#666666"
     borderopacity="1.0"
     inkscape:pageopacity="0.0"
     inkscape:pageshadow="2"
     inkscape:zoom="2.8284271"
     inkscape:cx="387.5299"
     inkscape:cy="9.3450899"
     inkscape:document-units="mm"
     inkscape:current-layer="layer1"
     showgrid="false"
     inkscape:window-width="1822"
     inkscape:window-height="1051"
     inkscape:window-x="1791"
     inkscape:window-y="-9"
     inkscape:window-maximized="1"
     inkscape:snap-global="true"
     fit-margin-top="0"
     fit-margin-left="0"
     fit-margin-right="0"
     fit-margin-bottom="0" />
  <metadata
     id="metadata5">
    <rdf:RDF>
      <cc:Work
         rdf:about="">
        <dc:format>image/svg+xml</dc:format>
        <dc:type
           rdf:resource="http://purl.org/dc/dcmitype/StillImage" />
        <dc:title />
      </cc:Work>
    </rdf:RDF>
  </metadata>
  <g
     inkscape:label="Ebene 1"
     inkscape:groupmode="layer"
     id="layer1"
     transform="translate(0.34059124,-77.791337)">
    <path
       style="fill:#000000;stroke-width:0.6618163"
       d="M 112.89062,0 C 111.30123,0 107.91945,2.9826643 100.95703,10.53125 77.774503,35.665448 60.824338,60.758241 55.09375,78.423828 53.51489,83.29099 52.042386,90.763665 51.066406,98.859375 50.122533,106.68863 43.142785,107.40349 35.466797,100.45898 29.662455,95.207637 21.883447,84.593752 17.748047,76.285156 12.546056,65.833515 12.252981,64.180501 11.755859,42.355469 11.307301,22.660766 11.014825,20.363031 8.609375,17.705078 8.0322827,17.067396 6.8467694,16.544922 5.9746094,16.544922 c -2.190089,0 -3.5012468,3.381697 -3.5175782,9.078125 -0.00756,2.468712 -0.4438029,7.467472 -0.9707031,11.107422 -2.36949914,16.369625 -1.9232354,28.300242 1.4589844,39.046875 3.6535976,11.608652 7.2221275,16.614664 24.2929685,34.066406 8.624349,8.81673 13.717078,14.6047 16.025391,18.2168 5.95468,9.31797 22.512734,38.31797 22.996094,40.27539 0.3137,1.27128 0.127709,2.40886 -0.570313,3.47461 -0.876049,1.33704 -1.578936,1.5844 -4.498047,1.58398 -4.59024,-6.8e-4 -9.403271,-2.34262 -18.68164,-9.0918 -17.849078,-12.98358 -31.518342,-31.70126 -36.3574222,-49.7832 -1.8364688,-6.86245 -2.7357348,-8.03822 -4.5097657,-5.9043 -3.4005202,4.0904 0.985265,25.8844 7.5605469,37.57618 8.550539,15.20405 22.833447,27.83469 41.396484,36.60547 3.923192,1.85365 16.810637,6.56303 28.640625,10.46679 11.829959,3.9038 26.767676,9.20894 33.193356,11.78711 6.4257,2.57828 16.25358,5.90666 21.83985,7.39844 25.47296,6.80247 34.89383,10.16562 50.26562,17.9375 1.248,0.63099 2.38313,1.22731 3.4668,1.8125 0.0983,0.0654 0.18342,0.13013 0.2793,0.19531 v -4.12695 h 40.47265 c -1.96398,-1.54467 -4.28059,-2.9786 -7.55664,-4 -8.52812,-2.64473 -12.47119,-4.66917 -22.7207,-11.66602 -4.6111,-3.14778 -10.52134,-7.14841 -13.13477,-8.89062 -6.85912,-4.5727 -12.68979,-10.75099 -16.14258,-17.10547 -4.02552,-7.40863 -5.49058,-9.1144 -7.02734,-8.17969 -1.84637,1.12309 -1.83552,4.88187 0.0293,9.30078 0.89813,2.12788 1.5482,3.9563 1.44336,4.0625 -0.1047,0.10621 -2.08972,-0.91178 -4.41016,-2.26172 -11.94958,-6.95153 -20.26173,-15.86398 -25.74023,-27.59961 -3.42078,-7.32778 -4.50305,-11.81626 -5.29883,-21.95507 -0.37115,-4.73197 -0.96911,-9.6883 -1.32813,-11.01563 -1.27709,-4.72176 -4.37665,-3.60394 -6.33203,2.2832 -0.91691,2.76053 -1.04386,4.88376 -0.71094,12 0.7515,16.05948 3.31037,23.36171 13.63672,38.91602 4.24377,6.39231 6.8109,10.84264 6.32032,10.96094 -0.45423,0.1096 -3.31801,-0.43418 -6.36328,-1.20899 -21.69135,-5.51886 -39.465297,-22.44744 -53.257818,-50.72265 -11.667929,-23.91973 -7.230884,-34.40031 19.999998,-47.240238 13.59414,-6.409888 21.72229,-12.164828 31.37891,-22.21875 7.43663,-7.742625 17.84058,-21.610377 21.39258,-28.511718 1.34827,-2.619591 1.35326,-2.84375 0.0351,-2.84375 -1.58003,0 -4.57642,2.283009 -11.1875,8.52539 -15.35585,14.499402 -33.82339,27.037292 -45.666012,31.003907 -8.431979,2.824214 -8.92938,2.649671 -5.59375,-1.955079 2.086558,-2.880376 2.488646,-6.414054 0.792968,-6.970703 -0.456722,-0.150047 -2.691575,1.723622 -4.964844,4.164063 -4.349207,4.669077 -13.660432,12.509524 -14.207031,11.96289 -0.513411,-0.51341 1.747009,-10.84765 3.634766,-16.61914 2.73679,-8.367118 10.94799,-23.857506 21.400391,-40.371094 C 113.59549,4.1762823 115.77569,0 112.89062,0 Z M 383.2207,0 c -2.88506,0 -0.70487,4.1762823 15.71094,30.111328 10.4524,16.513588 18.6636,32.003976 21.40039,40.371094 1.88776,5.77149 4.14622,16.10573 3.63281,16.61914 -0.54655,0.546634 -9.85781,-7.293813 -14.20703,-11.96289 -2.27327,-2.440441 -4.50617,-4.314072 -4.96289,-4.164063 -1.69568,0.556649 -1.29359,4.090327 0.79297,6.970703 3.33562,4.60475 2.83627,4.779293 -5.5957,1.955079 -11.84262,-3.966615 -30.30822,-16.504505 -45.66407,-31.003907 -6.61106,-6.242381 -9.60746,-8.52539 -11.1875,-8.52539 -1.31696,0 -1.31586,0.224159 0.0332,2.84375 3.552,6.901341 13.95786,20.769093 21.39453,28.511718 9.65662,10.053922 17.78478,15.808862 31.37891,22.21875 27.23089,12.839928 31.66793,23.320508 20,47.240238 -13.79252,28.27521 -31.56645,45.20379 -53.25782,50.72265 -3.04528,0.77481 -5.90905,1.31863 -6.36328,1.20899 -0.49058,-0.1183 2.07459,-4.56863 6.31836,-10.96094 10.32635,-15.55431 12.88524,-22.85654 13.63672,-38.91602 0.33298,-7.11624 0.20789,-9.23947 -0.70898,-12 -1.95534,-5.88714 -5.0549,-7.00496 -6.33204,-2.2832 -0.35905,1.32733 -0.95697,6.28366 -1.32812,11.01563 -0.79578,10.13881 -1.88001,14.62729 -5.30078,21.95507 -5.4785,11.73563 -13.7887,20.64808 -25.73828,27.59961 -2.32044,1.34994 -4.30547,2.36793 -4.41016,2.26172 -0.10469,-0.1062 0.54324,-1.93462 1.44141,-4.0625 1.86391,-4.41891 1.8786,-8.17769 0.0312,-9.30078 -1.53676,-0.93471 -3.00177,0.77106 -7.02735,8.17969 -3.45275,6.35448 -9.28345,12.53277 -16.14258,17.10547 -2.61341,1.74221 -8.52366,5.74284 -13.13476,8.89062 -10.24951,6.99685 -14.19453,9.02129 -22.72266,11.66602 -3.64384,1.22535 -6.41991,2.60611 -8.71289,4 h 41.63086 v 4.10547 c 0.0992,-0.058 0.1859,-0.1202 0.28711,-0.17774 1.08129,-0.58375 2.21424,-1.17922 3.45899,-1.80859 15.37179,-7.77188 24.79266,-11.13503 50.26562,-17.9375 5.58626,-1.49178 15.41414,-4.82016 21.83984,-7.39844 6.42569,-2.57817 21.36145,-7.88331 33.19141,-11.78711 11.83,-3.90376 24.71939,-8.61314 28.64258,-10.46679 18.56303,-8.77078 32.84594,-21.40142 41.39648,-36.60547 6.57529,-11.69178 10.95911,-33.48578 7.5586,-37.57618 -1.77404,-2.13392 -2.67131,-0.95815 -4.50782,5.9043 -4.83908,18.08194 -18.51029,36.79962 -36.35937,49.7832 -9.27836,6.74918 -14.08945,9.09112 -18.67969,9.0918 -2.91912,4.2e-4 -3.622,-0.24679 -4.49804,-1.58398 -0.69805,-1.06575 -0.88597,-2.20333 -0.57227,-3.47461 0.48336,-1.95742 17.04332,-30.95742 22.99805,-40.27539 2.30827,-3.6121 7.39908,-9.40007 16.02343,-18.2168 17.07084,-17.451742 20.64133,-22.457754 24.29493,-34.066406 3.38222,-10.746633 3.82653,-22.67725 1.45703,-39.046875 -0.52691,-3.63995 -0.96311,-8.63871 -0.97071,-11.107422 -0.0151,-5.696428 -1.32554,-9.078125 -3.51562,-9.078125 -0.87217,0 -2.05763,0.522474 -2.63477,1.160156 -2.40544,2.657953 -2.69988,4.955688 -3.14843,24.650391 -0.49713,21.825032 -0.78825,23.478046 -5.99024,33.929687 -4.13541,8.308596 -11.91637,18.922481 -17.7207,24.173824 -7.676,6.94451 -14.6538,6.22965 -15.59766,-1.599605 -0.97599,-8.09571 -2.44848,-15.568385 -4.02734,-20.435547 C 435.28698,60.758241 418.33487,35.665448 395.15234,10.53125 388.18992,2.9826643 384.81015,0 383.2207,0 Z M 106.10547,215.31641 c -0.31573,-0.0117 -0.62347,-0.0106 -0.92383,0.002 -3.18896,0.0718 -5.542625,1.47206 -7.373046,4.26562 -2.058339,3.14147 -1.98572,3.69653 1.394531,10.60547 7.322045,14.96572 29.033715,40.95835 42.537105,50.92383 3.81857,2.81813 8.54207,5.31626 13.41407,7.22852 6.03836,2.43704 12.20817,3.88476 17.26953,3.88476 h 6.18945 v 5.41016 c 0,7.99842 2.07971,15.17803 12.72656,43.92383 2.84798,7.68934 5.09401,13.88335 7.01172,19.3457 V 236.59961 h -5.3125 c 2.26174,2.79585 2.91267,5.60388 3.56641,8.91211 l 0.94531,5.60351 -8.50586,-7.79492 c -14.39883,-13.19395 -25.66694,-17.92447 -46.88086,-19.84375 -12.39335,-1.12127 -19.90512,-2.76048 -28.18164,-6.14648 -3.07318,-1.25729 -5.66684,-1.93215 -7.87695,-2.01367 z m 283.90039,0 c -2.21009,0.0816 -4.80374,0.75638 -7.87695,2.01367 -8.27654,3.386 -15.79019,5.02521 -28.1836,6.14648 -21.21388,1.91928 -32.48008,6.6498 -46.8789,19.84375 l -8.50782,7.79492 0.94727,-5.60351 c 0.83261,-4.09247 1.92477,-6.84414 3.42187,-8.91211 h -5.05468 v 123.98242 c 1.89671,-5.39356 4.10229,-11.47735 6.89648,-19.02148 10.64685,-28.7458 12.72852,-35.92541 12.72852,-43.92383 v -5.41016 h 6.18945 c 5.10062,0 11.32708,-1.46806 17.41016,-3.93945 4.82158,-1.90496 9.49205,-4.38314 13.27343,-7.17383 13.50339,-9.96548 35.21507,-35.95811 42.53711,-50.92383 3.38026,-6.90894 3.45287,-7.464 1.39453,-10.60547 -1.83008,-2.79299 -4.18505,-4.19347 -7.37304,-4.26562 -0.30036,-0.0126 -0.6081,-0.0136 -0.92383,-0.002 z m -126.96484,15.06054 c -4.95255,3.60878 -7.74356,6.8233 -14.89649,7.08203 -7.95918,-0.0173 -11.65718,-2.45043 -14.95898,-5.33203 v 4.47266 h -9.95313 v 70.5918 h 49.76172 v -70.5918 h -9.95312 z m -39.8086,85.14453 v 70.35938 h 9.95313 v 8.33203 h -26.01172 c 0.31054,2.53891 0.55797,5.16538 0.77734,8.07422 2.08555,27.65329 7.95038,38.21944 23.47071,42.28516 h 0.002 c 5.44819,1.42681 11.04324,2.1182 16.63086,2.08789 5.58844,0.0302 11.18383,-0.66071 16.63281,-2.08789 15.52176,-4.06534 21.38704,-14.63077 23.47266,-42.28516 0.21937,-2.90884 0.46689,-5.53531 0.77734,-8.07422 h -25.89648 v -8.33203 h 9.95312 v -70.35938 z"
       transform="matrix(0.26458333,0,0,0.26458333,-0.34050939,77.791337)"
       id="path839"
       inkscape:connector-curvature="0"
       sodipodi:nodetypes="scccccccsccccccccsccsscccccccccsccccccccccccccscccscccccccsssscccccccscscsccccccccccccccscccccccccsscccccccccccsccccsccsccccccscssccccccsccccsccccccsscsccccccccccccccccccccccccccccccccc" />
  </g>
</svg>
